# xmcd CD database file
#
# Track frame offsets:
#	150
#	13950
#	30207
#	43744
#	59057
#	74369
#	87609
#	102826
#	117073
#	131330
#	147332
#	157434
#	176801
#	198398
#	228307
#	250424
#	264305
#	286484
#
# Disc length: 4075 seconds
#
# Revision: 0
# Processed by: cddbd v1.5.2PL0 Copyright (c) Steve Scherf et al.
# Submitted via: CDex 1.51
#
DISCID=100fe912
DTITLE=Various Artist - Blues and Swing
DYEAR=2007
DGENRE=Jazz
TTITLE0=Duke Ellington and Orchestra - The Blues I Love To Sing 10-26-1927
TTITLE1=Helen Humes - Count Basie Ensemble - Blues With Helen 06-03-1938
TTITLE2=Jimmy Rushing - Count Basie Orchestra - How Long Blues 06-24-1939
TTITLE3=Ida Cox and Her All Star Band - For Day Creep 10-31-1939
TTITLE4=Billy Eckstine - Earl Hines and Orchestra - Jelly Jelly 12-02-1940
TTITLE5=Hot Lips Page Trio - Just Another Woman 12-12-1940
TTITLE6=Jimmy Rushing - Count Basie Orchestra - Goin' To Chicago Blues 04-10-1941
TTITLE7=Ivie Anderson - Duke Ellinton and His Famous Orchestra - Rocks In My Bed 09-26-1941
TTITLE8=Billy Eckstine - Earl Hines and Hir Orchestra - Stormy Monday Blues 03-19-1942
TTITLE9=Jimmy Rushing - Count Basie and His Orchestra - Sent For You Yesterday 01-10-1944
TTITLE10=Walter Brown - Jay Mc'Shann - Lonely Boy Blues 03-19-1944
TTITLE11=Louis Armstrong and His All Stars - Back O'Town Blues 05-17-1947
TTITLE12=Jack Teagarden and His Orchestra - Miss'Ry And The Blues 11-12-1954
TTITLE13=Jimmy Rushing - Buck Clayton Jam Session - Don't You Miss Your Baby 03-05-1956
TTITLE14=Big Joe Turner - Piney Brown Blues 03-06-1956
TTITLE15=Jimmy Witherspoon - Willbur De Paris - Trouble In Mind 11-19-1956
TTITLE16=Jack Teagarden - Bud Freeman's Summa Cum Laude Orchestra - Jack Hits The Road 07-08-1957
TTITLE17=Jimmy Witherspoon - Jay Mc'Shann - Confessin' The Blues 12-04-1957
EXTD=YEAR: 2007
EXTT0=
EXTT1=
EXTT2=
EXTT3=
EXTT4=
EXTT5=
EXTT6=
EXTT7=
EXTT8=
EXTT9=
EXTT10=
EXTT11=
EXTT12=
EXTT13=
EXTT14=
EXTT15=
EXTT16=
EXTT17=
PLAYORDER=
